<svg width="31" height="38" viewBox="0 0 31 38" fill="none" xmlns="http://www.w3.org/2000/svg">
<path d="M7.61483 1.71392L1.57896 7.61465H6.85335C7.24529 7.61465 7.61483 7.29396 7.61483 6.91982V1.71392ZM0 35.579C0 36.7549 1.06384 37.7597 2.29565 37.7597H28.3876C29.6195 37.7597 30.6833 36.7549 30.6833 35.579V2.28047C30.6833 1.1046 29.6195 0.131836 28.3876 0.131836H9.85449V6.91982C9.85449 8.46983 8.4771 9.7526 6.85335 9.7526H0V35.579Z" fill="#FFD032"/>
<path d="M3.51953 20.7633C3.51953 21.3512 4.02204 21.8323 4.63621 21.8323H25.5851C26.1993 21.8323 26.7018 21.3512 26.7018 20.7633C26.7018 20.1754 26.1993 19.6943 25.5851 19.6943H4.63621C4.02204 19.6943 3.51953 20.1754 3.51953 20.7633Z" fill="white"/>
<path d="M25.5851 26.1079H4.63621C4.02204 26.1079 3.51953 26.5889 3.51953 27.1769C3.51953 27.7648 4.02204 28.2459 4.63621 28.2459H25.5851C26.1993 28.2459 26.7018 27.7648 26.7018 27.1769C26.7018 26.5889 26.1993 26.1079 25.5851 26.1079Z" fill="white"/>
</svg>
