<svg width="47" height="46" viewBox="0 0 47 46" fill="none" xmlns="http://www.w3.org/2000/svg">
<path d="M35.5584 5.52759H22.0381V12.9696H40.5584V10.5276C40.5584 7.76617 38.3198 5.52759 35.5584 5.52759Z" fill="#FFD032"/>
<path d="M0 6.00006C0 2.68636 2.68628 8.19098e-05 5.99998 6.77884e-05L16.8542 2.1533e-05C19.6987 9.41102e-06 22.0572 2.20327 22.2505 5.04122C22.4463 7.91628 24.8619 10.1329 27.7431 10.0816L40.8931 9.84713C44.2481 9.78731 47 12.4906 47 15.8462V39.4462C47 42.7599 44.3137 45.4462 41 45.4462H6C2.68629 45.4462 0 42.7599 0 39.4462V6.00006Z" fill="#FFD032"/>
</svg>
